<svg version="1.2" xmlns="http://www.w3.org/2000/svg" viewBox="0 0 329 164" width="329" height="164"><defs><clipPath clipPathUnits="userSpaceOnUse" id="cp1"><path d="m-0.28 0.88h329.7v162.33h-329.7z"/></clipPath></defs><style>.a{fill:#fff}</style><path class="a" d="m128.4 104.5h-11.3v-0.5h0.9c1.2 0 1.6-0.4 1.6-1.7v-11.2c0-1.3-0.4-1.9-2-1.9h-0.4v-0.5h7.5v0.5h-0.9c-1.7 0-2.1 0.2-2.1 1.8v11.6q0 0.2 0 0.4 0.1 0.2 0.3 0.4 0.1 0.1 0.3 0.1 0.2 0.1 0.4 0l3.7 0.1c1.5 0 2-0.6 3.6-2.8h0.4l-1.9 3.7z"/><path class="a" d="m152.8 88.8v0.4c-1.7 0-2.3 0.7-2.3 2.4v6.8c0 3.1-2 6.5-7.5 6.5-4.8 0-7.3-2.8-7.3-6.4v-7.4c0-1.6-0.4-1.8-2.1-1.9v-0.4h6.5v0.4h-0.3c-1.3 0-2 0.4-2 1.9v7c0 3.4 2 5.4 5.8 5.4 2.9 0 5.8-1.2 5.8-5.4v-5.9c0-2.4-0.4-2.9-2.5-3v-0.4h5.9z"/><path class="a" d="m167 104.5h-11.3v-0.5h0.8c1.2 0 1.6-0.4 1.6-1.7v-11.2c0-1.3-0.4-1.9-2-1.9h-0.3v-0.5h7.4v0.5h-0.9c-1.6 0-2.1 0.2-2.1 1.8v11.6q0 0.2 0.1 0.4 0 0.2 0.2 0.4 0.1 0.1 0.3 0.1 0.2 0.1 0.4 0l3.7 0.1c1.5 0 2-0.6 3.6-2.8h0.4z"/><path class="a" d="m183.4 98.8h-0.5c-0.2-1.8-0.7-2-1.7-2h-4.3v5.4c0 1.1 0.4 1.4 1.4 1.4h3.8c1.8 0 2.3-0.7 3-2.9h0.4l-0.4 3.8h-13.4v-0.5h0.7c2 0 2.4-0.6 2.4-2.1v-10.6c0-1.5-0.4-2-2-2h-0.6v-0.5h12.1l0.2 3.5h-0.4c-0.3-2.2-1-2.6-1.9-2.6h-5.3v6.2h4.5c0.9 0 1.4-0.4 1.5-1.9h0.5v4.8z"/><path fill-rule="evenodd" class="a" d="m195.1 97.5zm-1.4 4q-0.1 0.2-0.2 0.3-0.1 0.2-0.1 0.4-0.1 0.2-0.1 0.4-0.1 0.2-0.1 0.4c0 0.7 0.6 1 2 1h0.4v0.5h-5.9v-0.5c1.7 0 2-0.3 2.8-2.5l4.6-12.6-0.3-0.6h2.2l5.3 14q0.1 0.4 0.3 0.8 0.2 0.3 0.5 0.5 0.4 0.2 0.8 0.3 0.3 0.1 0.7 0v0.5h-6.9v-0.4h0.6c1.5 0 2-0.2 2-0.9q0-0.1 0-0.3 0-0.1-0.1-0.2 0-0.1 0-0.3-0.1-0.1-0.2-0.2l-1.6-4.6h-5.3zm4.1-11l-2.2 5.9h4.4z"/><path class="a" d="m19 117.9v0.5c-1.7 0-2.3 0.7-2.3 2.3v6.8c0 3.2-2 6.5-7.5 6.5-4.8 0-7.3-2.7-7.3-6.3v-7.4c0-1.6-0.4-1.9-2.2-1.9v-0.5h6.5v0.5h-0.2c-1.4 0-2 0.4-2 1.8v7c0 3.4 2 5.5 5.8 5.5 2.8 0 5.7-1.2 5.7-5.5v-5.9c0-2.4-0.4-2.8-2.5-3v-0.5h6z"/><path class="a" d="m39.5 133.8l-13.1-13.7v10.9c0 1.8 0.4 2.2 2.5 2.2v0.5h-5.8v-0.5h0.1c1.5 0 2-0.5 2-1.7v-12.5q-0.2-0.2-0.4-0.3-0.3-0.1-0.6-0.2-0.2-0.1-0.5-0.1-0.3 0-0.6 0v-0.5h4l11.9 12.4v-10c0-1.6-0.5-1.9-2.5-1.9v-0.5h5.9v0.5c-1.9 0-2.3 0.3-2.3 1.3v14.1z"/><path class="a" d="m53.7 133.6h-6.2v-0.4c1.6-0.1 1.9-0.5 1.9-2.2v-10.8c0-1.3-0.4-1.7-1.9-1.8v-0.5h6.2v0.5c-1.6 0-2.2 0.4-2.2 2v10.7c0 1.5 0.4 2 2.2 2v0.5z"/><path class="a" d="m66.9 134l-5.5-13.7c-0.6-1.6-0.9-2-2.4-2v-0.5h7v0.5c-2.4 0.1-2.9 0.6-2.4 1.8l4.5 11.3 4-10.5q0.1-0.1 0.2-0.3 0-0.2 0.1-0.4 0-0.2 0.1-0.4 0-0.2 0-0.4c0-0.8-0.6-1.1-2.3-1.1v-0.5h5.8v0.5c-1.3 0-2 0.6-2.6 2.2l-5.2 13.5c0 0-1.3 0-1.3 0z"/><path class="a" d="m91 127.9h-0.5c-0.2-1.8-0.7-2-1.7-2h-4.3v5.4c0 1.2 0.5 1.4 1.4 1.4h3.9c1.8 0 2.3-0.7 2.9-2.8h0.5l-0.4 3.7h-13.4v-0.5h0.7c2 0 2.3-0.5 2.3-2v-10.7c0-1.4-0.3-2-2-2h-0.5v-0.5h12.1l0.2 3.5h-0.5c-0.3-2.1-1-2.5-1.8-2.5h-5.4v6.1h4.6c0.9 0 1.3-0.4 1.4-1.9h0.5v4.8z"/><path fill-rule="evenodd" class="a" d="m102.9 131.3c0 1.5 0.6 1.9 2 1.9h0.6v0.4h-7.2v-0.4h0.4c1.5 0 2-0.5 2-2.1v-10.7c0-1.6-0.4-2-1.9-2h-0.5v-0.5c0.6 0 2.1-0.1 3.2-0.1 1-0.1 1.5-0.1 3.2-0.1 4.6 0 6.7 1.9 6.7 4.5q0 0.7-0.3 1.4-0.2 0.7-0.7 1.2-0.4 0.6-1 1-0.6 0.3-1.3 0.5 0.3 0.3 0.7 0.6 0.4 0.3 0.7 0.7 0.4 0.3 0.8 0.6 0.3 0.4 0.6 0.7l2 2q0.5 0.6 1.1 1 0.6 0.5 1.2 0.8 0.6 0.3 1.3 0.5 0.7 0.2 1.4 0.3v0.4c-4.4 0.2-5.5-0.7-7.8-3l-1.6-1.6q-0.3-0.4-0.7-0.6-0.3-0.3-0.6-0.6-0.3-0.3-0.7-0.6-0.3-0.2-0.6-0.5c-0.7 0-1 0.1-1.8 0.1-0.7 0-0.8 0-1.2-0.1v4.3zm0-4.8q0.1 0.1 0.3 0.1 0.2 0 0.4 0 0.2 0 0.4 0 0.2 0 0.4 0c2.8 0 4.7-1.2 4.7-4.2 0-2.4-1.1-4.2-5-4.2q-0.2 0-0.3 0-0.2 0-0.4 0-0.1 0-0.3 0-0.1 0-0.3 0v8.3z"/><path class="a" d="m120.2 129.8q0.1 0.7 0.5 1.4 0.4 0.7 1 1.1 0.6 0.5 1.3 0.8 0.7 0.3 1.5 0.3c1.7 0 3.5-1 3.5-3 0-3.7-8.1-4.8-8.1-9.2 0-2.1 1.9-3.7 4.5-3.7 2.1 0 2.5 0.6 3.4 0.6q0.1 0.1 0.1 0 0.1 0 0.2 0 0 0 0.1-0.1 0 0 0.1-0.1h0.4l0.4 3.2h-0.4q-0.3-0.6-0.7-1.2-0.4-0.5-0.9-0.9-0.6-0.4-1.2-0.6-0.6-0.3-1.3-0.3c-1.7 0-2.8 1-2.8 2.4 0 3.6 8.1 4.5 8.1 9.2 0 2.5-2.2 4.3-5.2 4.3q-0.4 0-0.9-0.1-0.4-0.1-0.9-0.2-0.4 0-0.8-0.1-0.5-0.1-0.9-0.3-0.1 0-0.2 0 0 0.1-0.1 0.1-0.1 0-0.1 0.1-0.1 0-0.1 0.1h-0.4l-0.6-3.8h0.5z"/><path class="a" d="m142.3 133.6h-6.1v-0.4c1.5-0.1 1.9-0.5 1.9-2.2v-10.8c0-1.3-0.5-1.7-1.9-1.8v-0.5h6.1v0.5c-1.6 0-2.1 0.4-2.1 2v10.7c0 1.5 0.4 2 2.1 2v0.5z"/><path class="a" d="m155.6 131.3c0 1.4 0.4 1.9 2 1.9h0.9v0.4h-8v-0.4h1c1.5 0 2-0.5 2-1.9v-12.5h-4.4c-1 0-1.5 0.6-1.9 2.8h-0.5l0.5-4.1h0.4q0 0.1 0.1 0.1 0 0.1 0 0.1 0.1 0.1 0.1 0.1 0.1 0 0.1 0 0.1 0.1 0.1 0.1 0.1 0 0.2 0 0 0 0.1 0 0.1 0 0.1 0h12.2q0.1 0 0.2 0 0.1 0 0.2 0 0.1-0.1 0.2-0.2 0.1-0.1 0.2-0.2h0.4l0.4 4.1h-0.4c-0.4-2.2-0.9-2.8-1.9-2.8h-4.4v12.5z"/><path class="a" d="m178 120.2c0.8-1.4 0.3-1.8-1.3-1.8v-0.5h5.7v0.5q-0.5 0-1 0.1-0.4 0.2-0.8 0.4-0.5 0.3-0.8 0.7-0.3 0.4-0.5 0.8l-4.2 7.1v3.8c0 1.3 0.4 1.9 2 1.9h0.3v0.4h-7v-0.4h0.6c1.6 0 2-0.6 2-1.9v-3.5l-4.5-7c-1.2-2-1.8-2.3-3.5-2.4v-0.4h6.8v0.4c-2 0-2.1 0.5-1.4 1.7l4 6.2 3.6-6.1z"/><path fill-rule="evenodd" class="a" d="m38.4 155.3c0-5 3.9-8.6 9.3-8.6 4.7 0 8.8 3.3 8.8 7.8 0 1.2-0.2 2.3-0.7 3.4-0.4 1.1-1.1 2.1-1.9 2.9-0.9 0.8-1.9 1.4-3 1.8-1 0.4-2.2 0.6-3.4 0.6-5 0-9.1-3.2-9.1-7.9zm8.6-8c-4.5 0-6.2 4.2-6.2 7.2 0 4.7 3.2 8.1 7.3 8.1 4 0 6.1-3.7 6.1-7.3 0-4.7-3-8-7.2-8z"/><path class="a" d="m71.9 156.8h-0.5c0-1.5-0.5-2-1.8-2h-4.6v5.6c0 1.4 0.3 1.9 2.2 1.9v0.5h-6.2v-0.5c1.6-0.1 1.8-0.4 1.8-2.5v-9.9c0-1.6-0.1-2.3-1.9-2.3v-0.5h11.4v3h-0.5c0-1.5-0.5-2.1-2.1-2.1h-4.7v6h5c0.9 0 1.4-0.6 1.5-1.7h0.4v4.5z"/><path class="a" d="m93 160.5c0 1.3 0.5 1.8 2 1.8h0.9v0.5h-8v-0.5h1c1.5 0 2-0.5 2-1.8v-12.5h-4.4c-1 0-1.5 0.6-1.9 2.8h-0.4l0.4-4.1h0.5q0 0.1 0 0.1 0 0.1 0.1 0.1 0 0 0 0.1 0.1 0 0.1 0 0.1 0 0.2 0 0 0.1 0.1 0.1 0.1 0 0.1 0 0.1 0 0.1 0h12.2q0.1 0 0.2 0 0.2 0 0.3-0.1 0.1 0 0.1-0.1 0.1-0.1 0.2-0.2h0.5l0.4 4.1h-0.5c-0.4-2.2-0.8-2.8-1.8-2.8h-4.4z"/><path class="a" d="m116.2 157.1h-0.4c-0.2-1.8-0.7-2-1.8-2h-4.2v5.4c0 1.2 0.4 1.4 1.3 1.4h3.9c1.8 0 2.3-0.7 2.9-2.9h0.5l-0.4 3.8h-13.4v-0.5h0.7c2 0 2.4-0.5 2.4-2v-10.7c0-1.4-0.4-2-2-2h-0.6v-0.5h12.1l0.2 3.5h-0.4c-0.3-2.1-1-2.6-1.9-2.6h-5.3v6.2h4.5c0.9 0 1.4-0.4 1.5-1.9h0.5v4.8z"/><path class="a" d="m138.4 151.2q-0.4-0.9-0.9-1.6-0.6-0.7-1.4-1.3-0.8-0.5-1.7-0.7-0.9-0.3-1.8-0.3c-4.2 0-6.8 3.1-6.8 7.3 0 4.6 3.2 8 7.1 8q0.9 0 1.9-0.2 0.9-0.3 1.7-0.8 0.8-0.5 1.5-1.2 0.6-0.7 1.1-1.6h0.4q-0.1 0.5-0.3 1-0.2 0.5-0.4 0.9-0.2 0.5-0.4 0.9-0.2 0.5-0.5 0.9c-1.6-0.2-2.7 0.7-5.7 0.7-5.1 0-8.8-3.4-8.8-8 0-4.9 3.8-8.5 9-8.5 3.2 0 4.6 1 5.4 1q0 0 0.1 0 0.1 0 0.1 0 0.1 0 0.1-0.1 0.1 0 0.1 0h0.4l0.2 3.6h-0.4z"/><path class="a" d="m147.5 155.3v4.8c0 1.6 0.3 2.2 2 2.2h0.1v0.5h-6.4v-0.5h0.2c1.5 0 2-0.4 2-1.8v-11.2c0-1.3-0.4-1.6-1.8-1.8v-0.4h6v0.4c-1.8 0-2.1 0.5-2.1 2.5v4.4h9.9v-5c0-1.4-0.4-1.9-2-1.9h-0.5v-0.5h6.5v0.5c-1.5 0.1-1.9 0.5-1.9 2.1v10.5c0 1.8 0.5 2.2 2 2.2h0.2v0.5h-7.1v-0.5h0.8c1.6 0 2-0.6 2-1.9v-5.1h-9.9z"/><path class="a" d="m182.7 163l-13.1-13.7v10.8c0 1.9 0.4 2.2 2.6 2.2v0.5h-5.9v-0.5h0.1c1.6 0 2.1-0.5 2.1-1.6v-12.5q-0.3-0.2-0.5-0.3-0.3-0.1-0.5-0.2-0.3-0.1-0.6-0.1-0.3 0-0.5 0v-0.5h4l11.9 12.4v-10.1c0-1.5-0.5-1.8-2.5-1.8v-0.5h5.9v0.5c-1.9 0-2.3 0.3-2.3 1.3v14.1h-0.7z"/><path fill-rule="evenodd" class="a" d="m198.1 163.2c-5 0-9.1-3.2-9.1-7.9 0-5 3.8-8.6 9.2-8.6 4.8 0 8.9 3.3 8.9 7.8 0 1.2-0.3 2.3-0.7 3.4-0.5 1.1-1.1 2.1-2 2.9-0.8 0.8-1.8 1.4-2.9 1.8-1.1 0.4-2.3 0.6-3.4 0.6q0 0 0 0zm-0.5-15.9c-4.5 0-6.3 4.2-6.3 7.2 0 4.7 3.2 8.1 7.3 8.1 4.1 0 6.1-3.7 6.1-7.3 0-4.7-3-8-7.1-8z"/><path class="a" d="m221.2 162.8h-11.3v-0.5h0.9c1.1 0 1.5-0.4 1.5-1.6v-11.2c0-1.4-0.3-1.9-2-1.9h-0.3v-0.5h7.5v0.5h-1c-1.6 0-2 0.1-2 1.7v11.7q-0.1 0.2 0 0.4 0.1 0.2 0.2 0.3 0.2 0.2 0.4 0.2 0.1 0.1 0.4 0h3.7c1.5 0 1.9-0.6 3.5-2.8h0.5l-2 3.7z"/><path fill-rule="evenodd" class="a" d="m235.3 163.2c-5 0-9.1-3.2-9.1-7.9 0-5 3.9-8.6 9.3-8.6 4.7 0 8.8 3.3 8.8 7.8 0 1.2-0.2 2.3-0.7 3.4-0.4 1.1-1.1 2.1-1.9 2.9-0.9 0.8-1.9 1.4-2.9 1.8-1.1 0.4-2.3 0.6-3.5 0.6q0 0 0 0zm-0.5-15.9c-4.4 0-6.2 4.2-6.2 7.2 0 4.7 3.2 8.1 7.3 8.1 4 0 6.1-3.7 6.1-7.3 0-4.7-3-8-7.2-8z"/><path class="a" d="m263 161.6q-0.8 0.4-1.6 0.7-0.8 0.3-1.7 0.5-0.9 0.2-1.7 0.3-0.9 0.1-1.8 0.1c-1 0-2.1-0.1-3.1-0.5-1-0.4-1.9-1-2.7-1.7-0.7-0.8-1.3-1.7-1.7-2.7-0.4-1-0.6-2-0.6-3.1 0-1.2 0.2-2.3 0.7-3.4 0.4-1 1.1-2 1.9-2.8 0.8-0.8 1.8-1.4 2.9-1.8 1.1-0.4 2.2-0.6 3.4-0.5q0.6 0 1.3 0.1 0.6 0.1 1.2 0.2 0.7 0.1 1.3 0.2 0.6 0.2 1.2 0.4 0.1 0 0.2 0 0-0.1 0.1-0.1 0.1 0 0.1 0 0.1-0.1 0.2-0.1h0.3v4.1h-0.5q-0.1-0.9-0.6-1.7-0.4-0.8-1.1-1.4-0.8-0.6-1.7-0.9-0.8-0.2-1.8-0.2c-4.4 0-6.7 3.7-6.7 7.8 0 5.2 3.7 7.5 6.6 7.5q0.5 0 1-0.1 0.5-0.1 1-0.2 0.5-0.1 0.9-0.3 0.5-0.2 0.9-0.4v-3.2c0-1.5-0.5-1.9-2-1.9h-0.9v-0.5h6.8v0.5c-1.2 0-1.7 0.5-1.7 1.6v3.5z"/><g clip-path="url(#cp1)"><path class="a" d="m280.4 149.4c0.8-1.4 0.3-1.8-1.3-1.8v-0.5h5.7v0.5q-0.5 0-1 0.1-0.5 0.1-0.9 0.4-0.4 0.3-0.7 0.6-0.4 0.4-0.6 0.9l-4.2 7.1v3.7c0 1.4 0.5 1.9 2 1.9h0.4v0.5h-7v-0.5h0.4c1.6 0 2-0.6 2-1.8v-3.6l-4.5-7c-1.2-1.9-1.8-2.3-3.4-2.3v-0.5h6.7v0.5c-2 0-2.1 0.5-1.3 1.6l4 6.3 3.5-6.1z"/><path class="a" d="m329.5 88.5c-13.1 13.8-17.1 31.8-10.6 43 0 0-33.8 15.3-65.7 1.3-33.6-14.6-61.3 5.8-61.3 5.8v-8.2c28.4-6.4 24-15.1 24.7-45.8v-44.4c0-30.8-0.5-31.1-24.3-32.8v-6.5c0 0 13.6 0 36.3 0 22.8 0 35 0 35 0v6.5c-24.4 1.7-24.9 2-24.9 32.8 0 0-0.1 23.3 0 45 0.1 21.7 0.4 30.2 11.6 38.9 8.1 6.3 17 7.9 25.6 8 8.6 0.1 22-4 28.8-11.3q1.4-1.5 2.8-3.1 1.3-1.7 2.4-3.5 1.1-1.8 2.1-3.7 0.9-1.8 1.7-3.8 1-2.4 2-4.7 1-2.4 1.9-4.8 0.9-2.4 1.7-4.9 0.8-2.4 1.6-4.8l6.9 0.8 1.7 0.2z"/></g><path fill-rule="evenodd" class="a" d="m199 86.7c-0.9 0.4-1.9 0.2-2.6-0.5-0.7-0.7-0.9-1.7-0.6-2.6 0.4-0.9 1.3-1.5 2.3-1.5q0.4 0 0.9 0.2 0.4 0.2 0.8 0.5 0.3 0.3 0.5 0.8 0.2 0.4 0.2 0.9c0 1-0.6 1.9-1.5 2.2zm-1.6-0.6c0.6 0.2 1.4 0.1 1.9-0.4 0.4-0.5 0.6-1.2 0.3-1.8-0.2-0.7-0.9-1.1-1.5-1.1q-0.4 0-0.7 0.1-0.3 0.2-0.5 0.4-0.3 0.2-0.4 0.6-0.1 0.3-0.1 0.6c0 0.7 0.4 1.3 1 1.6z"/></svg>