<?xml version="1.0" encoding="utf-8"?>
<!-- Generator: Adobe Illustrator 22.1.0, SVG Export Plug-In . SVG Version: 6.00 Build 0)  -->
<svg version="1.0" id="Lager_1" xmlns="http://www.w3.org/2000/svg" xmlns:xlink="http://www.w3.org/1999/xlink" x="0px" y="0px"
	 viewBox="0 0 971 226.8" style="enable-background:new 0 0 971 226.8;" xml:space="preserve">
<style type="text/css">
	.st0{fill:#0C243E;}
	.st1{fill:#FCCE30;}
	.st2{fill:none;}
</style>
<g>
	<g>
		<g>
			<path d="M255,139.3c-0.7-0.8-1.6-1.5-2.6-2c-1-0.5-2.1-0.7-3.2-0.7c-0.8,0-1.4,0.1-1.9,0.3c-0.5,0.2-0.9,0.4-1.3,0.7
				c-0.3,0.3-0.6,0.6-0.7,1c-0.1,0.4-0.2,0.7-0.2,1.1c0,0.8,0.3,1.4,0.8,2c0.5,0.5,1.4,1,2.6,1.3l3.6,1c2.7,0.8,4.8,2,6.3,3.5
				c1.5,1.6,2.2,3.5,2.2,5.7c0,1.2-0.2,2.3-0.7,3.4c-0.5,1.1-1.2,2.1-2.2,2.9c-0.9,0.9-2.1,1.5-3.5,2c-1.4,0.5-3,0.8-4.9,0.8
				c-1,0-2-0.1-3-0.3c-1-0.2-2-0.5-3-0.9c-1-0.4-1.9-1-2.7-1.6c-0.9-0.6-1.6-1.4-2.3-2.2l4-3.9c1,1.2,2.2,2,3.4,2.6
				c1.2,0.5,2.4,0.8,3.6,0.8c0.8,0,1.6-0.1,2.2-0.3c0.6-0.2,1.1-0.5,1.5-0.8c0.4-0.3,0.7-0.7,0.9-1.2c0.2-0.4,0.3-0.9,0.3-1.3
				c0-1-0.3-1.8-1-2.4c-0.7-0.6-1.8-1.1-3.3-1.6l-3.2-1c-2.6-0.8-4.5-1.9-5.9-3.3c-1.3-1.4-2-3.2-2-5.4c0-1.1,0.2-2.2,0.7-3.2
				c0.5-1,1.1-1.9,2-2.7c0.9-0.8,2-1.4,3.2-1.9c1.3-0.5,2.7-0.7,4.4-0.7c1.8,0,3.6,0.3,5.3,1c1.7,0.7,3.2,1.8,4.6,3.3L255,139.3z"/>
			<path d="M261.4,141.6h5.9l4.3,11.9l4.2-11.3h4l4.2,11.3l4.3-11.9h5.8l-7.9,20.3h-4l-4.5-11.1l-4.4,11.1h-4L261.4,141.6z"/>
			<path d="M306,157.7c0.9,0,1.8-0.2,2.7-0.5c0.8-0.4,1.6-0.9,2.2-1.6l3.9,2.9c-1.1,1.3-2.4,2.3-3.9,2.9c-1.5,0.6-3.2,1-5,1
				c-1.7,0-3.2-0.3-4.5-0.8c-1.3-0.5-2.5-1.3-3.4-2.2c-0.9-0.9-1.7-2.1-2.2-3.4c-0.5-1.3-0.8-2.7-0.8-4.2c0-1.5,0.2-2.8,0.7-4.1
				c0.5-1.3,1.2-2.4,2-3.4c0.9-0.9,2-1.7,3.2-2.2c1.3-0.5,2.7-0.8,4.3-0.8c1.5,0,2.9,0.3,4.1,0.8c1.2,0.5,2.3,1.3,3.2,2.2
				c0.9,0.9,1.6,2,2.1,3.2c0.5,1.2,0.7,2.5,0.7,3.9c0,0.4,0,0.8,0,1.1c0,0.3,0,0.5-0.1,0.7h-14.5c0.1,1.3,0.7,2.4,1.6,3.2
				C303.4,157.3,304.6,157.7,306,157.7z M305.3,145.7c-1.3,0-2.3,0.4-3.1,1.2c-0.8,0.8-1.2,1.8-1.4,3h8.8c0-0.6-0.2-1.1-0.4-1.6
				c-0.2-0.5-0.5-1-0.9-1.3c-0.4-0.4-0.8-0.7-1.3-0.9C306.5,145.8,305.9,145.7,305.3,145.7z"/>
			<path d="M318.4,151.8c0-1.5,0.3-2.9,0.8-4.2c0.5-1.3,1.2-2.4,2.1-3.4c0.9-0.9,1.9-1.7,3.1-2.2c1.2-0.5,2.5-0.8,4-0.8
				c1,0,2,0.2,2.9,0.5c0.9,0.3,1.7,0.8,2.4,1.4v-12.3h5.7v31.1h-3.7l-0.9-2.6c-0.7,0.9-1.6,1.6-2.7,2.2c-1.1,0.6-2.4,0.8-3.8,0.8
				c-1.4,0-2.7-0.3-3.9-0.8c-1.2-0.5-2.2-1.3-3.1-2.2c-0.9-0.9-1.5-2.1-2-3.3C318.7,154.7,318.4,153.3,318.4,151.8z M324.1,151.8
				c0,0.7,0.1,1.4,0.3,2.1c0.2,0.6,0.6,1.2,1,1.7c0.4,0.5,0.9,0.9,1.5,1.1c0.6,0.3,1.2,0.4,1.9,0.4c1.4,0,2.6-0.5,3.5-1.4
				c0.9-1,1.4-2.2,1.4-3.8c0-1.6-0.4-2.8-1.3-3.8c-0.9-1-2.1-1.5-3.5-1.5c-0.7,0-1.3,0.1-1.9,0.4c-0.6,0.3-1.1,0.6-1.5,1.1
				c-0.4,0.5-0.8,1-1,1.7C324.2,150.4,324.1,151.1,324.1,151.8z"/>
			<path d="M344,134.7c0-0.9,0.3-1.7,1-2.4c0.7-0.6,1.4-1,2.3-1c0.9,0,1.7,0.3,2.4,1c0.7,0.6,1,1.4,1,2.4s-0.3,1.7-1,2.4
				c-0.7,0.7-1.5,1-2.4,1c-0.9,0-1.7-0.3-2.3-1C344.3,136.5,344,135.7,344,134.7z M350.2,161.9h-5.8v-20.3h5.8V161.9z"/>
			<path d="M366.6,147.1c-0.6-0.4-1.2-0.8-1.9-1c-0.7-0.2-1.4-0.4-2.2-0.4c-0.7,0-1.3,0.2-1.7,0.5c-0.4,0.3-0.6,0.7-0.6,1.2
				c0,0.4,0.1,0.7,0.4,1c0.3,0.3,0.7,0.5,1.3,0.6l1.8,0.5c2.3,0.6,3.9,1.5,4.9,2.6c1,1.1,1.4,2.4,1.4,3.9c0,0.9-0.2,1.7-0.5,2.4
				c-0.4,0.8-0.9,1.5-1.6,2.1c-0.7,0.6-1.5,1.1-2.5,1.4c-1,0.4-2.2,0.5-3.5,0.5c-1.6,0-3-0.2-4.4-0.7c-1.4-0.5-2.6-1.2-3.6-2.2
				l2.8-3.7c0.7,0.7,1.4,1.2,2.3,1.5c0.9,0.4,1.7,0.5,2.5,0.5c0.9,0,1.6-0.2,2-0.6c0.4-0.4,0.6-0.9,0.6-1.4c0-0.4-0.2-0.8-0.5-1.1
				c-0.3-0.3-0.8-0.6-1.5-0.8l-2.4-0.7c-0.6-0.2-1.3-0.4-1.9-0.7c-0.6-0.3-1.2-0.7-1.7-1.1c-0.5-0.5-0.9-1-1.3-1.6
				c-0.3-0.6-0.5-1.4-0.5-2.3c0-0.8,0.2-1.6,0.5-2.4c0.3-0.7,0.8-1.4,1.5-2c0.6-0.6,1.4-1,2.4-1.3c1-0.3,2.1-0.5,3.3-0.5
				c1.3,0,2.6,0.2,3.7,0.5c1.2,0.4,2.3,0.9,3.3,1.6L366.6,147.1z"/>
			<path d="M379.6,161.9h-5.8v-31.1h5.8v12.3c0.7-0.6,1.4-1.1,2.3-1.4c0.9-0.3,1.8-0.5,2.8-0.5c1.2,0,2.4,0.2,3.4,0.6
				c1,0.4,1.9,1,2.7,1.8c0.8,0.8,1.3,1.8,1.8,2.9c0.4,1.1,0.6,2.4,0.6,3.8v11.5h-5.6v-11.1c0-1.2-0.3-2.2-0.9-3
				c-0.6-0.8-1.6-1.2-2.8-1.2c-0.9,0-1.8,0.3-2.6,0.8c-0.8,0.5-1.4,1.2-1.7,2V161.9z"/>
			<path d="M435.7,161.9h-5.5l-14.1-19.1v19.1h-6.4v-30.2h5.5l14.1,19.2v-19.2h6.4V161.9z"/>
			<path d="M440.4,151.8c0-1.5,0.3-2.9,0.8-4.1c0.5-1.3,1.2-2.4,2.1-3.3c0.9-0.9,2-1.7,3.2-2.2c1.2-0.5,2.5-0.8,4-0.8
				c1.2,0,2.4,0.2,3.5,0.7c1.2,0.5,2.2,1.2,3.1,2.1l1.4-2.5h3.1v20.4h-4.8l-0.3-2.6c-0.8,1-1.7,1.7-2.9,2.2
				c-1.2,0.5-2.4,0.8-3.6,0.8c-1.3,0-2.5-0.3-3.7-0.8c-1.2-0.5-2.2-1.3-3-2.2c-0.9-0.9-1.5-2-2.1-3.3
				C440.7,154.7,440.4,153.3,440.4,151.8z M446.1,151.8c0,0.7,0.1,1.4,0.3,2.1c0.2,0.6,0.6,1.2,1,1.7c0.4,0.5,1,0.8,1.6,1.1
				c0.6,0.3,1.3,0.4,2,0.4c1.5,0,2.6-0.5,3.6-1.5c0.9-1,1.4-2.3,1.4-3.9c0-0.7-0.1-1.4-0.4-2c-0.2-0.6-0.6-1.2-1-1.6
				c-0.4-0.5-1-0.8-1.6-1.1c-0.6-0.3-1.3-0.4-2-0.4c-0.7,0-1.4,0.1-2,0.4c-0.6,0.3-1.1,0.6-1.5,1.1c-0.4,0.5-0.8,1-1,1.7
				C446.2,150.4,446.1,151.1,446.1,151.8z"/>
			<path d="M464.5,141.6h3.5l0.8-5.9l4.7,0.1v5.8h5.1v4.8h-5.1v7.9c0,0.9,0.2,1.5,0.6,2c0.4,0.4,0.9,0.7,1.6,0.7h2.8l0.2,4.8
				c-0.8,0.1-1.5,0.2-2.2,0.3c-0.7,0.1-1.3,0.1-2,0.1c-1.2,0-2.2-0.2-3-0.6c-0.9-0.4-1.6-0.9-2.1-1.5c-0.6-0.6-1-1.4-1.3-2.3
				c-0.3-0.9-0.4-1.8-0.4-2.8v-8.6h-3.3V141.6z"/>
			<path d="M482.3,134.7c0-0.9,0.3-1.7,1-2.4c0.7-0.6,1.4-1,2.3-1c0.9,0,1.7,0.3,2.4,1c0.7,0.6,1,1.4,1,2.4s-0.3,1.7-1,2.4
				c-0.7,0.7-1.5,1-2.4,1c-0.9,0-1.7-0.3-2.3-1C482.6,136.5,482.3,135.7,482.3,134.7z M488.5,161.9h-5.8v-20.3h5.8V161.9z"/>
			<path d="M492.3,151.8c0-1.5,0.2-2.8,0.7-4.1c0.5-1.3,1.2-2.4,2.1-3.4c0.9-0.9,2-1.7,3.3-2.2c1.3-0.5,2.7-0.8,4.3-0.8
				c1.6,0,3,0.3,4.3,0.8c1.3,0.5,2.4,1.3,3.3,2.2c0.9,0.9,1.6,2.1,2.1,3.4c0.5,1.3,0.8,2.7,0.8,4.1c0,1.5-0.3,2.8-0.8,4.1
				c-0.5,1.3-1.2,2.4-2.1,3.4c-0.9,0.9-2,1.7-3.3,2.2c-1.3,0.5-2.7,0.8-4.3,0.8c-1.6,0-3-0.3-4.3-0.8c-1.3-0.5-2.4-1.3-3.3-2.2
				c-0.9-0.9-1.6-2.1-2.1-3.4C492.6,154.6,492.3,153.3,492.3,151.8z M497.9,151.8c0,0.7,0.1,1.4,0.4,2.1c0.2,0.6,0.6,1.2,1,1.7
				c0.4,0.5,0.9,0.8,1.5,1.1c0.6,0.3,1.2,0.4,1.9,0.4c0.7,0,1.4-0.1,2-0.4c0.6-0.3,1.1-0.6,1.5-1.1c0.4-0.5,0.7-1,1-1.7
				c0.2-0.6,0.4-1.3,0.4-2.1c0-0.7-0.1-1.4-0.4-2.1c-0.2-0.6-0.6-1.2-1-1.7c-0.4-0.5-0.9-0.9-1.5-1.1c-0.6-0.3-1.2-0.4-2-0.4
				c-0.7,0-1.4,0.1-1.9,0.4c-0.6,0.3-1.1,0.7-1.5,1.1c-0.4,0.5-0.8,1-1,1.7C498,150.4,497.9,151.1,497.9,151.8z"/>
			<path d="M522.8,161.9h-5.8v-20.4h3.1l1.6,2.6c0.7-0.8,1.5-1.5,2.6-2.1c1.1-0.5,2.3-0.8,3.6-0.8c1.2,0,2.4,0.2,3.4,0.6
				c1,0.4,1.9,1,2.7,1.8c0.8,0.8,1.4,1.7,1.8,2.9c0.4,1.1,0.6,2.4,0.6,3.9v11.5h-5.6v-11.1c0-1.2-0.3-2.2-0.9-3
				c-0.6-0.8-1.6-1.2-2.9-1.2c-0.9,0-1.8,0.3-2.5,0.8c-0.8,0.5-1.3,1.2-1.7,2V161.9z"/>
			<path d="M540.1,151.8c0-1.5,0.3-2.9,0.8-4.1c0.5-1.3,1.2-2.4,2.1-3.3c0.9-0.9,2-1.7,3.2-2.2c1.2-0.5,2.5-0.8,4-0.8
				c1.2,0,2.4,0.2,3.5,0.7c1.2,0.5,2.2,1.2,3.1,2.1l1.4-2.5h3.1v20.4h-4.8l-0.3-2.6c-0.8,1-1.7,1.7-2.9,2.2
				c-1.2,0.5-2.4,0.8-3.6,0.8c-1.3,0-2.5-0.3-3.7-0.8c-1.2-0.5-2.2-1.3-3-2.2c-0.9-0.9-1.5-2-2.1-3.3
				C540.3,154.7,540.1,153.3,540.1,151.8z M545.8,151.8c0,0.7,0.1,1.4,0.4,2.1c0.2,0.6,0.6,1.2,1,1.7c0.4,0.5,1,0.8,1.6,1.1
				c0.6,0.3,1.3,0.4,2,0.4c1.5,0,2.6-0.5,3.6-1.5c0.9-1,1.4-2.3,1.4-3.9c0-0.7-0.1-1.4-0.4-2c-0.2-0.6-0.6-1.2-1-1.6
				c-0.4-0.5-1-0.8-1.6-1.1c-0.6-0.3-1.3-0.4-2-0.4s-1.4,0.1-2,0.4c-0.6,0.3-1.1,0.6-1.5,1.1c-0.4,0.5-0.8,1-1,1.7
				C545.9,150.4,545.8,151.1,545.8,151.8z"/>
			<path d="M572,161.9h-5.8v-31.1h5.8V161.9z"/>
			<path d="M604.1,139.3c-0.7-0.8-1.6-1.5-2.6-2c-1-0.5-2.1-0.7-3.2-0.7c-0.8,0-1.4,0.1-1.9,0.3c-0.5,0.2-0.9,0.4-1.3,0.7
				c-0.3,0.3-0.6,0.6-0.7,1c-0.1,0.4-0.2,0.7-0.2,1.1c0,0.8,0.3,1.4,0.8,2c0.5,0.5,1.4,1,2.6,1.3l3.6,1c2.7,0.8,4.8,2,6.3,3.5
				c1.5,1.6,2.2,3.5,2.2,5.7c0,1.2-0.2,2.3-0.7,3.4c-0.5,1.1-1.2,2.1-2.2,2.9c-0.9,0.9-2.1,1.5-3.5,2c-1.4,0.5-3,0.8-4.9,0.8
				c-1,0-2-0.1-3-0.3c-1-0.2-2-0.5-3-0.9c-1-0.4-1.9-1-2.7-1.6c-0.9-0.6-1.6-1.4-2.3-2.2l4-3.9c1,1.2,2.2,2,3.4,2.6
				c1.2,0.5,2.4,0.8,3.6,0.8c0.8,0,1.6-0.1,2.2-0.3c0.6-0.2,1.1-0.5,1.5-0.8c0.4-0.3,0.7-0.7,0.9-1.2c0.2-0.4,0.3-0.9,0.3-1.3
				c0-1-0.3-1.8-1-2.4c-0.7-0.6-1.8-1.1-3.3-1.6l-3.2-1c-2.6-0.8-4.5-1.9-5.9-3.3c-1.3-1.4-2-3.2-2-5.4c0-1.1,0.2-2.2,0.7-3.2
				c0.5-1,1.1-1.9,2-2.7c0.9-0.8,2-1.4,3.2-1.9c1.3-0.5,2.7-0.7,4.4-0.7c1.8,0,3.6,0.3,5.3,1c1.7,0.7,3.2,1.8,4.6,3.3L604.1,139.3z"
				/>
			<path d="M634.6,151.8c0,1.5-0.2,2.8-0.7,4.1c-0.5,1.3-1.1,2.4-2,3.4c-0.9,1-1.9,1.7-3.1,2.3c-1.2,0.6-2.6,0.8-4.1,0.8
				c-1,0-2-0.2-2.9-0.6c-0.9-0.4-1.7-0.9-2.3-1.5V172h-5.8v-30.4h3.1l1.6,2.9c0.8-1,1.7-1.8,2.8-2.3c1.1-0.5,2.3-0.8,3.7-0.8
				c1.4,0,2.7,0.3,3.8,0.8c1.2,0.5,2.2,1.3,3,2.2c0.8,0.9,1.5,2.1,2,3.3C634.3,148.9,634.6,150.3,634.6,151.8z M628.8,151.7
				c0-0.7-0.1-1.4-0.3-2.1c-0.2-0.6-0.5-1.2-0.9-1.6c-0.4-0.5-0.9-0.8-1.4-1.1c-0.6-0.3-1.2-0.4-1.9-0.4c-1.5,0-2.6,0.5-3.5,1.5
				c-0.9,1-1.3,2.3-1.3,3.8c0,0.8,0.1,1.5,0.4,2.2c0.3,0.6,0.6,1.2,1,1.7c0.4,0.5,0.9,0.8,1.5,1.1c0.6,0.2,1.2,0.4,1.9,0.4
				c0.7,0,1.3-0.1,1.9-0.4c0.6-0.3,1.1-0.7,1.5-1.2c0.4-0.5,0.7-1.1,0.9-1.7C628.7,153.2,628.8,152.5,628.8,151.7z"/>
			<path d="M637.5,151.8c0-1.5,0.3-2.9,0.8-4.1c0.5-1.3,1.2-2.4,2.1-3.3c0.9-0.9,2-1.7,3.2-2.2c1.2-0.5,2.5-0.8,4-0.8
				c1.2,0,2.4,0.2,3.5,0.7c1.2,0.5,2.2,1.2,3.1,2.1l1.4-2.5h3.1v20.4h-4.8l-0.3-2.6c-0.8,1-1.7,1.7-2.9,2.2
				c-1.2,0.5-2.4,0.8-3.6,0.8c-1.3,0-2.5-0.3-3.7-0.8c-1.2-0.5-2.2-1.3-3-2.2c-0.9-0.9-1.5-2-2.1-3.3
				C637.7,154.7,637.5,153.3,637.5,151.8z M643.1,151.8c0,0.7,0.1,1.4,0.4,2.1c0.2,0.6,0.6,1.2,1,1.7c0.4,0.5,1,0.8,1.6,1.1
				c0.6,0.3,1.3,0.4,2,0.4c1.5,0,2.6-0.5,3.6-1.5c0.9-1,1.4-2.3,1.4-3.9c0-0.7-0.1-1.4-0.4-2c-0.2-0.6-0.6-1.2-1-1.6
				c-0.4-0.5-1-0.8-1.6-1.1c-0.6-0.3-1.3-0.4-2-0.4s-1.4,0.1-2,0.4c-0.6,0.3-1.1,0.6-1.5,1.1c-0.4,0.5-0.8,1-1,1.7
				C643.3,150.4,643.1,151.1,643.1,151.8z"/>
			<path d="M668.2,151.8c0,0.7,0.1,1.4,0.4,2.1c0.2,0.6,0.6,1.2,1,1.7c0.5,0.5,1,0.9,1.6,1.1c0.6,0.3,1.3,0.4,2,0.4
				c0.9,0,1.7-0.2,2.3-0.5c0.7-0.3,1.3-0.7,1.9-1.3l3.9,3.7c-1.1,1-2.3,1.9-3.7,2.4c-1.4,0.6-2.9,0.9-4.6,0.9c-1.6,0-3-0.3-4.3-0.8
				c-1.3-0.5-2.4-1.3-3.4-2.3c-0.9-1-1.7-2.1-2.2-3.4c-0.5-1.3-0.8-2.6-0.8-4.1c0-1.5,0.2-2.8,0.7-4.1c0.5-1.3,1.2-2.4,2.1-3.4
				c0.9-1,2-1.7,3.3-2.3c1.3-0.5,2.7-0.8,4.3-0.8c1.8,0,3.4,0.4,4.9,1.1c1.5,0.7,2.7,1.7,3.8,3l-4.2,3.5c-0.5-0.7-1.2-1.3-1.9-1.7
				c-0.7-0.4-1.5-0.6-2.4-0.6c-0.7,0-1.4,0.1-2,0.4c-0.6,0.3-1.1,0.6-1.5,1.1c-0.4,0.5-0.8,1-1,1.7
				C668.4,150.4,668.2,151.1,668.2,151.8z"/>
			<path d="M694.6,157.7c0.9,0,1.8-0.2,2.7-0.5c0.8-0.4,1.6-0.9,2.2-1.6l3.9,2.9c-1.1,1.3-2.4,2.3-3.9,2.9c-1.5,0.6-3.2,1-5,1
				c-1.7,0-3.2-0.3-4.5-0.8c-1.3-0.5-2.5-1.3-3.4-2.2c-0.9-0.9-1.7-2.1-2.2-3.4c-0.5-1.3-0.8-2.7-0.8-4.2c0-1.5,0.2-2.8,0.7-4.1
				c0.5-1.3,1.2-2.4,2-3.4c0.9-0.9,2-1.7,3.2-2.2c1.3-0.5,2.7-0.8,4.3-0.8c1.5,0,2.9,0.3,4.1,0.8c1.2,0.5,2.3,1.3,3.2,2.2
				c0.9,0.9,1.6,2,2.1,3.2c0.5,1.2,0.7,2.5,0.7,3.9c0,0.4,0,0.8,0,1.1c0,0.3,0,0.5-0.1,0.7h-14.5c0.1,1.3,0.7,2.4,1.6,3.2
				C692,157.3,693.2,157.7,694.6,157.7z M693.9,145.7c-1.3,0-2.3,0.4-3.1,1.2c-0.8,0.8-1.2,1.8-1.4,3h8.8c0-0.6-0.2-1.1-0.4-1.6
				c-0.2-0.5-0.5-1-0.9-1.3c-0.4-0.4-0.8-0.7-1.3-0.9C695.1,145.8,694.5,145.7,693.9,145.7z"/>
			<path d="M738.7,155.2h-10.9l-2.7,6.7h-6.9l12.1-30.2h5.8l12.1,30.2h-7L738.7,155.2z M729.4,150.4h7.6l-3.8-10.4L729.4,150.4z"/>
			<path d="M760,172.3c-2,0-3.8-0.4-5.3-1.2c-1.6-0.8-2.9-1.9-3.8-3.3l4.1-3c0.5,0.8,1.3,1.4,2.1,1.9c0.9,0.5,1.8,0.7,2.9,0.7
				c1.5,0,2.7-0.4,3.7-1.3c1-0.9,1.5-2.1,1.5-3.8v-2.5c-0.7,0.8-1.6,1.4-2.6,1.9c-1,0.4-2,0.7-3.2,0.7c-1.3,0-2.6-0.3-3.7-0.8
				c-1.2-0.5-2.2-1.2-3-2.2c-0.9-0.9-1.5-2-2-3.3c-0.5-1.3-0.7-2.6-0.7-4.2c0-1.5,0.2-2.8,0.7-4.1c0.5-1.3,1.2-2.4,2-3.4
				c0.9-0.9,1.9-1.7,3.1-2.2c1.2-0.5,2.6-0.8,4.1-0.8c1.3,0,2.5,0.3,3.7,0.8c1.1,0.5,2.1,1.2,2.8,2l1.4-2.5h3.1V162
				c0,1.6-0.3,3-0.8,4.2c-0.5,1.3-1.2,2.3-2.2,3.2c-0.9,0.9-2.1,1.6-3.4,2.1C763.1,172,761.6,172.3,760,172.3z M755.5,151.7
				c0,0.7,0.1,1.4,0.3,2.1c0.2,0.6,0.5,1.2,1,1.7c0.4,0.5,0.9,0.9,1.5,1.1c0.6,0.3,1.3,0.4,2,0.4c0.7,0,1.3-0.1,1.9-0.4
				c0.6-0.3,1.1-0.7,1.5-1.1c0.4-0.5,0.8-1,1-1.7c0.2-0.6,0.3-1.3,0.3-2.1c0-0.7-0.1-1.4-0.3-2c-0.2-0.6-0.6-1.2-1-1.7
				c-0.4-0.5-0.9-0.9-1.5-1.1c-0.6-0.3-1.2-0.4-2-0.4c-0.7,0-1.4,0.1-2,0.4c-0.6,0.3-1.1,0.7-1.5,1.1c-0.4,0.5-0.7,1-1,1.7
				C755.7,150.3,755.5,151,755.5,151.7z"/>
			<path d="M785.8,157.7c0.9,0,1.8-0.2,2.7-0.5c0.8-0.4,1.6-0.9,2.2-1.6l3.9,2.9c-1.1,1.3-2.4,2.3-3.9,2.9c-1.5,0.6-3.2,1-5,1
				c-1.7,0-3.2-0.3-4.5-0.8c-1.3-0.5-2.5-1.3-3.4-2.2c-0.9-0.9-1.7-2.1-2.2-3.4c-0.5-1.3-0.8-2.7-0.8-4.2c0-1.5,0.2-2.8,0.7-4.1
				c0.5-1.3,1.2-2.4,2-3.4c0.9-0.9,2-1.7,3.2-2.2c1.3-0.5,2.7-0.8,4.3-0.8c1.5,0,2.9,0.3,4.1,0.8c1.2,0.5,2.3,1.3,3.2,2.2
				c0.9,0.9,1.6,2,2.1,3.2s0.7,2.5,0.7,3.9c0,0.4,0,0.8,0,1.1c0,0.3,0,0.5-0.1,0.7h-14.5c0.1,1.3,0.7,2.4,1.6,3.2
				C783.2,157.3,784.4,157.7,785.8,157.7z M785.1,145.7c-1.3,0-2.3,0.4-3.1,1.2c-0.8,0.8-1.2,1.8-1.4,3h8.8c0-0.6-0.2-1.1-0.4-1.6
				c-0.2-0.5-0.5-1-0.9-1.3c-0.4-0.4-0.8-0.7-1.3-0.9C786.3,145.8,785.7,145.7,785.1,145.7z"/>
			<path d="M805.1,161.9h-5.8v-20.4h3.1l1.6,2.6c0.7-0.8,1.5-1.5,2.6-2.1c1.1-0.5,2.3-0.8,3.6-0.8c1.2,0,2.4,0.2,3.4,0.6
				c1,0.4,1.9,1,2.7,1.8c0.8,0.8,1.4,1.7,1.8,2.9c0.4,1.1,0.6,2.4,0.6,3.9v11.5h-5.6v-11.1c0-1.2-0.3-2.2-0.9-3
				c-0.6-0.8-1.6-1.2-2.9-1.2c-0.9,0-1.8,0.3-2.5,0.8c-0.8,0.5-1.3,1.2-1.7,2V161.9z"/>
			<path d="M828,151.8c0,0.7,0.1,1.4,0.4,2.1c0.2,0.6,0.6,1.2,1,1.7c0.5,0.5,1,0.9,1.6,1.1c0.6,0.3,1.3,0.4,2,0.4
				c0.9,0,1.7-0.2,2.3-0.5c0.7-0.3,1.3-0.7,1.9-1.3l3.9,3.7c-1.1,1-2.3,1.9-3.7,2.4c-1.4,0.6-2.9,0.9-4.6,0.9c-1.6,0-3-0.3-4.3-0.8
				c-1.3-0.5-2.4-1.3-3.4-2.3c-0.9-1-1.7-2.1-2.2-3.4c-0.5-1.3-0.8-2.6-0.8-4.1c0-1.5,0.2-2.8,0.7-4.1c0.5-1.3,1.2-2.4,2.1-3.4
				c0.9-1,2-1.7,3.3-2.3c1.3-0.5,2.7-0.8,4.3-0.8c1.8,0,3.4,0.4,4.9,1.1c1.5,0.7,2.7,1.7,3.8,3l-4.2,3.5c-0.5-0.7-1.2-1.3-1.9-1.7
				c-0.7-0.4-1.5-0.6-2.4-0.6c-0.7,0-1.4,0.1-2,0.4c-0.6,0.3-1.1,0.6-1.5,1.1c-0.4,0.5-0.8,1-1,1.7C828.2,150.4,828,151.1,828,151.8
				z"/>
			<path d="M854.6,166.9c-0.7,1.7-1.6,3-2.9,3.9c-1.2,0.9-2.8,1.4-4.7,1.4c-0.5,0-1,0-1.5-0.1c-0.5-0.1-1-0.1-1.4-0.2l0.4-4.7h2.2
				c1.4,0,2.4-0.6,2.9-1.9l1.4-3.4l-8-20.2h5.9l4.9,12.9l4.9-12.9h6L854.6,166.9z"/>
		</g>
		<g>
			<path d="M278.3,76.1c0,3.5-0.9,6.5-2.8,9.1c-1.9,2.5-4.5,4.3-7.8,5.4l13.1,20.1h-12l-11.7-18.6h-6v18.6h-10.6V60.3h19.4
				c2.8,0,5.4,0.4,7.7,1.1c2.3,0.8,4.2,1.8,5.8,3.2c1.6,1.4,2.8,3,3.7,5C277.8,71.5,278.3,73.7,278.3,76.1z M251,69.3v14h8.4
				c2.6,0,4.6-0.7,6-2c1.3-1.3,2-2.9,2-5c0-2.2-0.7-4-2.2-5.2c-1.4-1.2-3.5-1.8-6.2-1.8H251z"/>
			<path d="M301.8,118.9c-1.1,2.8-2.7,5-4.8,6.5c-2.1,1.5-4.7,2.3-7.8,2.3c-0.9,0-1.7,0-2.5-0.1c-0.8-0.1-1.6-0.2-2.3-0.3l0.7-7.9
				h3.6c2.3,0,3.9-1,4.8-3.1l2.3-5.7l-13.3-33.7h9.9l8.1,21.5l8.2-21.5h9.9L301.8,118.9z"/>
			<path d="M353.7,110.7h-9.3V91.9c0-2.1-0.5-3.7-1.6-4.9c-1.1-1.2-2.6-1.9-4.6-1.9c-1.5,0-2.8,0.4-4,1.3c-1.2,0.8-2,1.9-2.5,3.3v21
				h-9.6V76.7h5.1l2.7,4.3c1-1.3,2.3-2.5,4-3.4c1.7-0.9,3.6-1.4,5.6-1.4c2.3,0,4.4,0.5,6.2,1.4c1.9,0.9,3.5,2.2,4.7,4
				c1.3-1.7,2.9-3,4.8-3.9c1.9-0.9,3.9-1.4,5.9-1.4c2,0,3.9,0.4,5.6,1.1c1.7,0.7,3.2,1.7,4.4,3c1.2,1.3,2.2,2.9,2.9,4.8
				c0.7,1.9,1,4,1,6.4v19.1H366V91.9c0-2-0.5-3.6-1.4-4.9c-0.9-1.3-2.4-1.9-4.5-1.9c-1.5,0-2.8,0.4-3.9,1.3c-1.2,0.8-2,1.9-2.4,3.3
				V110.7z"/>
			<path d="M380.5,93.9c0-2.5,0.4-4.8,1.3-6.9c0.8-2.1,2-4,3.5-5.6c1.5-1.6,3.2-2.8,5.2-3.7c2-0.9,4.2-1.4,6.6-1.4
				c1.7,0,3.3,0.3,4.8,0.8c1.5,0.5,2.8,1.3,4,2.4V58.9h9.5v51.8h-6.2l-1.6-4.3c-1.2,1.5-2.7,2.7-4.6,3.6c-1.9,0.9-4,1.4-6.3,1.4
				c-2.3,0-4.5-0.4-6.4-1.3c-2-0.9-3.7-2.1-5.1-3.7c-1.4-1.6-2.6-3.4-3.4-5.6C380.9,98.6,380.5,96.3,380.5,93.9z M389.9,93.8
				c0,1.2,0.2,2.4,0.6,3.5c0.4,1.1,0.9,2,1.6,2.8c0.7,0.8,1.6,1.4,2.5,1.9c1,0.4,2,0.7,3.2,0.7c2.4,0,4.3-0.8,5.8-2.4
				c1.5-1.6,2.3-3.7,2.3-6.4c0-2.6-0.7-4.7-2.2-6.4c-1.5-1.6-3.4-2.5-5.9-2.5c-1.1,0-2.2,0.2-3.2,0.7c-1,0.5-1.8,1.1-2.5,1.9
				c-0.7,0.8-1.3,1.7-1.6,2.8C390.1,91.4,389.9,92.6,389.9,93.8z"/>
			<path d="M442,85.9c-1-0.7-2-1.3-3.2-1.7c-1.2-0.4-2.4-0.6-3.6-0.6c-1.2,0-2.2,0.3-2.8,0.8c-0.6,0.5-1,1.2-1,2.1
				c0,0.6,0.2,1.1,0.7,1.6c0.4,0.5,1.2,0.8,2.2,1.1l3,0.8c3.8,1.1,6.5,2.5,8.1,4.2c1.6,1.8,2.4,3.9,2.4,6.4c0,1.4-0.3,2.8-0.9,4.1
				c-0.6,1.3-1.5,2.4-2.6,3.4c-1.1,1-2.6,1.8-4.2,2.4c-1.7,0.6-3.6,0.9-5.8,0.9c-2.6,0-5.1-0.4-7.4-1.2c-2.3-0.8-4.3-2-6.1-3.6
				l4.7-6.2c1.1,1.1,2.4,1.9,3.9,2.5c1.5,0.6,2.9,0.9,4.2,0.9c1.6,0,2.7-0.3,3.3-1c0.7-0.7,1-1.5,1-2.3c0-0.7-0.3-1.3-0.8-1.9
				c-0.5-0.6-1.4-1-2.5-1.3l-4-1.2c-1.1-0.3-2.1-0.7-3.2-1.1c-1.1-0.5-2-1.1-2.9-1.9c-0.9-0.8-1.6-1.7-2.1-2.7
				c-0.5-1.1-0.8-2.3-0.8-3.8c0-1.4,0.3-2.7,0.9-4c0.6-1.2,1.4-2.3,2.5-3.3c1.1-0.9,2.4-1.7,4-2.2c1.6-0.5,3.4-0.8,5.5-0.8
				c2.2,0,4.3,0.3,6.2,0.9c2,0.6,3.8,1.5,5.6,2.7L442,85.9z"/>
			<path d="M450.1,76.9h5.9l1.3-9.9l7.8,0.2v9.7h8.5v8h-8.5V98c0,1.5,0.3,2.6,1,3.3c0.7,0.7,1.6,1.1,2.7,1.1h4.7l0.3,8
				c-1.3,0.2-2.5,0.4-3.6,0.5c-1.1,0.1-2.2,0.1-3.3,0.1c-1.9,0-3.6-0.3-5-0.9c-1.4-0.6-2.6-1.4-3.5-2.5c-0.9-1.1-1.6-2.3-2.1-3.8
				c-0.5-1.5-0.7-3-0.7-4.7V84.8h-5.5V76.9z"/>
			<path d="M496.2,118.9c-1.1,2.8-2.7,5-4.8,6.5c-2.1,1.5-4.7,2.3-7.8,2.3c-0.9,0-1.7,0-2.5-0.1c-0.8-0.1-1.6-0.2-2.3-0.3l0.7-7.9
				h3.6c2.3,0,3.9-1,4.8-3.1l2.3-5.7l-13.3-33.7h9.9l8.1,21.5l8.2-21.5h9.9L496.2,118.9z"/>
			<path d="M526.2,110.7h-9.6V76.7h5.1l2.6,4.5c1.1-1.6,2.4-2.8,4-3.7c1.6-0.9,3.5-1.3,5.6-1.3c1.6,0,3.2,0.3,4.8,0.9
				c1.6,0.6,3,1.4,4.3,2.4l-4.4,7.4c-0.8-0.6-1.6-1.1-2.4-1.4c-0.8-0.3-1.8-0.5-2.8-0.5c-1.8,0-3.3,0.6-4.7,1.7
				c-1.3,1.1-2.2,2.6-2.5,4.5V110.7z"/>
			<path d="M561.9,103.7c1.6,0,3-0.3,4.4-0.9c1.4-0.6,2.6-1.5,3.7-2.7l6.6,4.8c-1.9,2.2-4.1,3.8-6.6,4.9c-2.5,1.1-5.3,1.6-8.3,1.6
				c-2.8,0-5.3-0.4-7.5-1.3c-2.2-0.9-4.1-2.1-5.7-3.7c-1.6-1.6-2.8-3.4-3.6-5.6c-0.8-2.1-1.3-4.5-1.3-6.9c0-2.4,0.4-4.7,1.2-6.9
				c0.8-2.1,1.9-4,3.4-5.6c1.5-1.6,3.3-2.8,5.4-3.7c2.1-0.9,4.5-1.4,7.1-1.4c2.5,0,4.8,0.5,6.9,1.4c2.1,0.9,3.9,2.1,5.3,3.7
				c1.5,1.6,2.6,3.4,3.5,5.4c0.8,2.1,1.2,4.2,1.2,6.6c0,0.7,0,1.3,0,1.9c0,0.5-0.1,0.9-0.1,1.2h-24.2c0.2,2.2,1.1,4,2.7,5.3
				C557.5,103,559.5,103.7,561.9,103.7z M560.7,83.6c-2.1,0-3.9,0.7-5.1,2c-1.3,1.3-2,3-2.3,5h14.6c0-1-0.3-1.9-0.6-2.7
				c-0.4-0.8-0.9-1.6-1.5-2.2c-0.6-0.6-1.4-1.1-2.2-1.5C562.7,83.8,561.7,83.6,560.7,83.6z"/>
			<path d="M593.3,110.7h-9.6V58.9h9.6V110.7z"/>
			<path d="M619.8,85.9c-1-0.7-2-1.3-3.2-1.7c-1.2-0.4-2.4-0.6-3.6-0.6c-1.2,0-2.2,0.3-2.8,0.8c-0.6,0.5-1,1.2-1,2.1
				c0,0.6,0.2,1.1,0.7,1.6c0.4,0.5,1.2,0.8,2.2,1.1l3,0.8c3.8,1.1,6.5,2.5,8.1,4.2c1.6,1.8,2.4,3.9,2.4,6.4c0,1.4-0.3,2.8-0.9,4.1
				c-0.6,1.3-1.5,2.4-2.6,3.4c-1.1,1-2.6,1.8-4.2,2.4c-1.7,0.6-3.6,0.9-5.8,0.9c-2.6,0-5.1-0.4-7.4-1.2c-2.3-0.8-4.3-2-6.1-3.6
				l4.7-6.2c1.1,1.1,2.4,1.9,3.9,2.5c1.5,0.6,2.9,0.9,4.2,0.9c1.6,0,2.7-0.3,3.3-1c0.7-0.7,1-1.5,1-2.3c0-0.7-0.3-1.3-0.8-1.9
				c-0.5-0.6-1.4-1-2.5-1.3l-4-1.2c-1.1-0.3-2.1-0.7-3.2-1.1c-1.1-0.5-2-1.1-2.9-1.9c-0.9-0.8-1.6-1.7-2.1-2.7
				c-0.5-1.1-0.8-2.3-0.8-3.8c0-1.4,0.3-2.7,0.9-4c0.6-1.2,1.4-2.3,2.5-3.3c1.1-0.9,2.4-1.7,4-2.2c1.6-0.5,3.4-0.8,5.5-0.8
				c2.2,0,4.3,0.3,6.2,0.9c2,0.6,3.8,1.5,5.6,2.7L619.8,85.9z"/>
			<path d="M647.7,103.7c1.6,0,3-0.3,4.4-0.9c1.4-0.6,2.6-1.5,3.7-2.7l6.6,4.8c-1.9,2.2-4.1,3.8-6.6,4.9c-2.5,1.1-5.3,1.6-8.3,1.6
				c-2.8,0-5.3-0.4-7.5-1.3c-2.2-0.9-4.1-2.1-5.7-3.7c-1.6-1.6-2.8-3.4-3.6-5.6c-0.8-2.1-1.3-4.5-1.3-6.9c0-2.4,0.4-4.7,1.2-6.9
				c0.8-2.1,1.9-4,3.4-5.6c1.5-1.6,3.3-2.8,5.4-3.7c2.1-0.9,4.5-1.4,7.1-1.4c2.5,0,4.8,0.5,6.9,1.4c2.1,0.9,3.9,2.1,5.3,3.7
				c1.5,1.6,2.6,3.4,3.5,5.4c0.8,2.1,1.2,4.2,1.2,6.6c0,0.7,0,1.3,0,1.9c0,0.5-0.1,0.9-0.1,1.2H639c0.2,2.2,1.1,4,2.7,5.3
				C643.3,103,645.3,103.7,647.7,103.7z M646.4,83.6c-2.1,0-3.9,0.7-5.1,2c-1.3,1.3-2,3-2.3,5h14.6c0-1-0.3-1.9-0.6-2.7
				c-0.4-0.8-0.9-1.6-1.5-2.2c-0.6-0.6-1.4-1.1-2.2-1.5C648.4,83.8,647.5,83.6,646.4,83.6z"/>
			<path d="M678.9,110.7h-9.6V76.7h5.1l2.7,4.4c1.1-1.4,2.5-2.6,4.4-3.5c1.8-0.9,3.8-1.4,5.9-1.4c2.1,0,3.9,0.3,5.7,1
				c1.7,0.7,3.2,1.7,4.5,3c1.3,1.3,2.3,2.9,3,4.8c0.7,1.9,1.1,4.1,1.1,6.5v19.1h-9.4V92.1c0-2.1-0.5-3.7-1.6-5c-1.1-1.3-2.7-2-4.8-2
				c-1.6,0-3,0.4-4.2,1.3c-1.3,0.9-2.2,2-2.8,3.3V110.7z"/>
		</g>
	</g>
	<g>
		<rect x="106.5" y="56.7" class="st0" width="106.5" height="113.4"/>
		<g>
			<path class="st1" d="M140,87.6c1,1.4,2,1.8,3,1.8c1.7,0,3-1.4,3-3c0-1.7-1.3-3-3-3c-0.2,0-0.5,0.1-0.7,0.1
				c0.5-0.6,0.9-1.3,0.9-2.1c0-1.8-1.4-3.2-3.2-3.2c-1.7,0-3.1,1.5-3.1,3.2c0,0.8,0.4,1.5,0.9,2.1c-0.2-0.1-0.4-0.1-0.7-0.1
				c-1.6,0-3,1.4-3,3c0,1.7,1.3,3,3,3C138.1,89.4,139.5,88.4,140,87.6z M128.8,89.5c0.9,0,3.2-0.3,3.1-3.1c-0.1-3-3.3-3-3.3-3
				s0.9-1.4,0.5-3c-0.7-2.9-4.4-2.4-4.4-2.4c0.2,0.7,1.4,6,2.2,10.5C126.9,88.5,127.7,89.5,128.8,89.5z M140,90.1c0,0,2,1.7,3.8,1.7
				c1.8,0,3.2-1.7,3.2-1.7s0.8,1.7,3.3,1.7c1,0,1.7-0.3,2.2-0.7c-0.1,0.7-0.3,1.2-0.3,1.7c-0.6,3.8-0.5,7.1-0.5,7.1h-23.2
				c0,0,0.1-3.3-0.5-7.1c-0.1-0.5-0.2-1-0.3-1.7c0.5,0.4,1.2,0.7,2.2,0.7c2.4,0,3.3-1.7,3.3-1.7s1.4,1.7,3.2,1.7
				C138.1,91.8,140,90.1,140,90.1z M153.1,88.5c0.9-4.5,2-9.8,2.2-10.5c0,0-3.7-0.6-4.4,2.4c-0.4,1.6,0.5,3,0.5,3s-3.3,0-3.3,3
				c-0.1,2.8,2.2,3.1,3.1,3.1C152.4,89.5,153.1,88.5,153.1,88.5z"/>
			<g>
				<path class="st1" d="M175.1,87.6c1,1.4,2,1.8,3,1.8c1.6,0,3-1.4,3-3c0-1.7-1.3-3-3-3c-0.2,0-0.5,0.1-0.7,0.1
					c0.4-0.6,0.9-1.3,0.9-2.1c0-1.8-1.4-3.2-3.1-3.2c-1.8,0-3.2,1.5-3.2,3.2c0,0.8,0.4,1.5,0.8,2.1c-0.2-0.1-0.4-0.1-0.7-0.1
					c-1.6,0-3,1.4-3,3c0,1.7,1.3,3,3,3C173.2,89.4,174.5,88.4,175.1,87.6z M163.9,89.5c0.9,0,3.2-0.3,3.1-3.1c0-3-3.3-3-3.3-3
					s0.9-1.4,0.5-3c-0.7-2.9-4.4-2.4-4.4-2.4c0.2,0.7,1.4,6,2.2,10.5C162,88.5,162.8,89.5,163.9,89.5z M175.1,90.1
					c0,0,2,1.7,3.8,1.7c1.8,0,3.2-1.7,3.2-1.7s0.9,1.7,3.3,1.7c1,0,1.7-0.3,2.2-0.7c-0.1,0.7-0.3,1.2-0.3,1.7
					c-0.6,3.8-0.5,7.1-0.5,7.1h-23.3c0,0,0.1-3.3-0.5-7.1c-0.1-0.5-0.2-1-0.4-1.7c0.6,0.4,1.2,0.7,2.2,0.7c2.4,0,3.3-1.7,3.3-1.7
					s1.4,1.7,3.2,1.7C173.1,91.8,175.1,90.1,175.1,90.1z M188.2,88.5c0.9-4.5,2-9.8,2.2-10.5c0,0-3.7-0.6-4.4,2.4
					c-0.4,1.6,0.5,3,0.5,3s-3.3,0-3.3,3c-0.1,2.8,2.2,3.1,3.1,3.1C187.5,89.5,188.2,88.5,188.2,88.5z"/>
			</g>
		</g>
		<g>
			<path class="st1" d="M154.5,133.2c-3.6,3.3-6.6,7.2-8.7,11.6c-2.1,4.3-3.8,9-4.2,13.8c3.1-9.9,10.6-19.5,19.3-25.4
				C159.1,133.2,156.2,133.2,154.5,133.2z"/>
			<path class="st1" d="M201.5,125.9c-0.7-0.4-1.4-0.8-2.2-1.1c-0.8-0.3-1.5-0.6-2.3-0.8c-1.6-0.5-3.2-0.8-4.8-1.1
				c-3.2-0.5-6.5-0.6-9.8-0.5c-0.8,0-1.6,0.1-2.5,0.2c-0.8,0.1-1.6,0.2-2.5,0.3c-1.3,0.2-2.5,0.5-3.8,0.8c-0.1,1.3-0.2,3.2-0.2,4
				C182.8,124.9,194.7,123.7,201.5,125.9z"/>
		</g>
		<path class="st1" d="M157.5,116.5c1.1,1.5,2.3,2,3.3,2c1.8,0,3.3-1.5,3.3-3.4c0-1.9-1.5-3.4-3.3-3.4c-0.2,0-0.5,0.1-0.8,0.1
			c0.5-0.6,1-1.4,1-2.3c0-2-1.6-3.6-3.5-3.6c-1.9,0-3.5,1.6-3.5,3.6c0,0.9,0.5,1.7,1,2.3c-0.2-0.1-0.5-0.1-0.8-0.1
			c-1.8,0-3.3,1.5-3.3,3.4c0,1.9,1.5,3.4,3.3,3.4C155.4,118.5,156.9,117.4,157.5,116.5z M145,118.6c1,0,3.6-0.3,3.5-3.4
			c-0.1-3.4-3.7-3.3-3.7-3.3s1-1.6,0.6-3.4c-0.8-3.3-4.9-2.6-4.9-2.6c0.2,0.7,1.5,6.6,2.5,11.7C142.9,117.6,143.7,118.6,145,118.6z
			 M157.5,119.3c0,0,2.2,1.9,4.2,1.9c2,0,3.6-1.9,3.6-1.9s0.9,1.9,3.7,1.9c1.1,0,1.9-0.3,2.5-0.8c-0.2,0.7-0.3,1.3-0.4,1.9
			c-0.7,4.3-0.6,7.9-0.6,7.9h-25.9c0,0,0.1-3.7-0.6-7.9c-0.1-0.5-0.2-1.1-0.4-1.9c0.6,0.5,1.3,0.8,2.5,0.8c2.7,0,3.7-1.9,3.7-1.9
			s1.5,1.9,3.6,1.9C155.4,121.3,157.5,119.3,157.5,119.3z M157.5,119.3c0,0,2.2,1.9,4.2,1.9c2,0,3.6-1.9,3.6-1.9s0.9,1.9,3.7,1.9
			c1.1,0,1.9-0.3,2.5-0.8c-0.2,0.7-0.3,1.3-0.4,1.9c-0.7,4.3-0.6,7.9-0.6,7.9h-25.9c0,0,0.1-3.7-0.6-7.9c-0.1-0.5-0.2-1.1-0.4-1.9
			c0.6,0.5,1.3,0.8,2.5,0.8c2.7,0,3.7-1.9,3.7-1.9s1.5,1.9,3.6,1.9C155.4,121.3,157.5,119.3,157.5,119.3z M172.1,117.6
			c1-5.1,2.3-11,2.5-11.7c0,0-4.1-0.7-4.9,2.6c-0.4,1.8,0.6,3.4,0.6,3.4s-3.6-0.1-3.7,3.3c-0.1,3.1,2.4,3.4,3.5,3.4
			C171.3,118.6,172.1,117.6,172.1,117.6z"/>
	</g>
</g>
<polyline class="st2" points="0,226.5 0,226.8 0.3,226.8 "/>
<polyline class="st2" points="971,0.3 971,0 970.8,0 "/>
</svg>
